HIERARCHY
ROOT root
{
	OFFSET 0.000000 0.000000 0.000000
	CHANNELS 6 Xposition Yposition Zposition Zrotation Yrotation Xrotation
	JOINT lhip
	{
		OFFSET 0.058581 -0.082280 -0.017664
		CHANNELS 3 Zrotation Yrotation Xrotation
		JOINT lknee
		{
			OFFSET 0.043451 -0.386469 0.008037
			CHANNELS 3 Zrotation Yrotation Xrotation
			JOINT lankle
			{
				OFFSET -0.014790 -0.426874 -0.037428
				CHANNELS 3 Zrotation Yrotation Xrotation
				JOINT ltoe
				{
					OFFSET 0.041054 -0.060286 0.122042
					CHANNELS 3 Zrotation Yrotation Xrotation
					End Site
					{
						OFFSET 0.000000 0.000000 0.000000
					}
				}
			}
		}
	}
	JOINT rhip
	{
		OFFSET -0.060310 -0.090513 -0.013543
		CHANNELS 3 Zrotation Yrotation Xrotation
		JOINT rknee
		{
			OFFSET -0.043257 -0.383688 -0.004843
			CHANNELS 3 Zrotation Yrotation Xrotation
			JOINT rankle
			{
				OFFSET 0.019056 -0.420046 -0.034562
				CHANNELS 3 Zrotation Yrotation Xrotation
				JOINT rtoe
				{
					OFFSET -0.034840 -0.062106 0.130323
					CHANNELS 3 Zrotation Yrotation Xrotation
					End Site
					{
						OFFSET 0.000000 0.000000 0.000000
					}
				}
			}
		}
	}
	JOINT lowerback
	{
		OFFSET 0.004439 0.124404 -0.038385
		CHANNELS 3 Zrotation Yrotation Xrotation
		JOINT upperback
		{
			OFFSET 0.004488 0.137956 0.026820
			CHANNELS 3 Zrotation Yrotation Xrotation
			JOINT chest
			{
				OFFSET -0.002265 0.056032 0.002855
				CHANNELS 3 Zrotation Yrotation Xrotation
				JOINT lowerneck
				{
					OFFSET -0.013390 0.211636 -0.033468
					CHANNELS 3 Zrotation Yrotation Xrotation
					JOINT upperneck
					{
						OFFSET 0.010113 0.088937 0.050410
						CHANNELS 3 Zrotation Yrotation Xrotation
						End Site
						{
							OFFSET 0.000000 0.000000 0.000000
						}
					}
				}
				JOINT lclavicle
				{
					OFFSET 0.071702 0.114000 -0.018898
					CHANNELS 3 Zrotation Yrotation Xrotation
					JOINT lshoulder
					{
						OFFSET 0.122921 0.045205 -0.019046
						CHANNELS 3 Zrotation Yrotation Xrotation
						JOINT lelbow
						{
							OFFSET 0.255332 -0.015649 -0.022946
							CHANNELS 3 Zrotation Yrotation Xrotation
							JOINT lwrist
							{
								OFFSET 0.265709 0.012698 -0.007375
								CHANNELS 3 Zrotation Yrotation Xrotation
								End Site
								{
									OFFSET 0.000000 0.000000 0.000000
								}
							}
						}
					}
				}
				JOINT rclavicle
				{
					OFFSET -0.082954 0.112472 -0.023707
					CHANNELS 3 Zrotation Yrotation Xrotation
					JOINT rshoulder
					{
						OFFSET -0.113228 0.046853 -0.008472
						CHANNELS 3 Zrotation Yrotation Xrotation
						JOINT relbow
						{
							OFFSET -0.260127 -0.014369 -0.031269
							CHANNELS 3 Zrotation Yrotation Xrotation
							JOINT rwrist
							{
								OFFSET -0.269108 0.006794 -0.006027
								CHANNELS 3 Zrotation Yrotation Xrotation
								End Site
								{
									OFFSET 0.000000 0.000000 0.000000
								}
							}
						}
					}
				}
			}
		}
	}
}
MOTION
Frames: 17
Frame Time: 0.033333
-0.225788 0.726518 0.807703 -0.472455 0.059229 90.000808 13.416350 6.738223 -37.404496 -4.831200 12.055001 63.497730 2.025703 13.091376 -36.794981 0.000000 -0.000000 0.000000 -7.224800 -5.368657 -44.844795 -1.170390 -9.046762 75.792437 4.788680 -8.299989 -34.168720 0.000000 -0.000000 0.000000 -0.423783 -0.923123 32.979458 2.373202 -1.423143 -7.962695 -0.651997 -1.907219 -1.779356 3.985887 9.992228 -25.320770 -4.599611 -3.797196 19.241114 -19.703153 -21.453723 -7.726994 -20.702459 -25.317520 -1.129611 51.968436 -67.565093 -31.643457 -0.691755 -11.547974 2.399419 20.895558 24.970702 -8.104091 17.523153 34.573625 0.061250 -48.120482 62.373772 -27.070068 18.246088 7.624832 2.336772 
-0.226538 0.727580 0.806573 -0.310107 0.043060 89.972136 13.543467 6.480650 -37.595219 -4.766359 12.212302 63.674796 1.969142 13.100891 -36.779841 0.000000 -0.000000 0.000000 -7.279766 -5.354572 -45.005284 -1.322842 -9.173924 76.082646 4.764938 -8.225556 -34.195717 0.000000 -0.000000 0.000000 -0.401577 -0.838032 33.162458 2.487567 -1.508243 -8.053941 -0.692041 -1.990929 -1.779238 3.931398 10.012464 -25.199579 -4.621841 -3.920320 18.974599 -19.823784 -21.415052 -7.742178 -20.729724 -25.531868 -1.037533 51.944901 -67.498537 -31.696060 -0.526237 -11.519564 2.403994 20.810768 24.883024 -8.195750 17.690541 34.629795 0.110398 -48.245143 62.436788 -26.915525 18.117582 7.625077 1.889771 
-0.227262 0.728288 0.805451 -0.166174 0.020722 89.911067 13.528472 6.331245 -37.772979 -4.673998 12.153803 63.916588 1.977376 13.177452 -36.783313 0.000000 -0.000000 0.000000 -7.268296 -5.314402 -45.110032 -1.404107 -9.178814 76.344137 4.747535 -8.321343 -34.251024 0.000000 -0.000000 0.000000 -0.394877 -0.817167 33.243515 2.495160 -1.548625 -8.020418 -0.705935 -2.051214 -1.737065 3.946454 9.973028 -25.198259 -4.588153 -3.967380 18.891085 -19.823339 -21.468541 -7.743072 -20.777708 -25.634408 -1.023666 52.082366 -67.512257 -31.726541 -0.558917 -11.457224 2.381423 20.829306 24.854151 -8.252461 17.778051 34.602957 0.160092 -48.531436 62.439438 -27.110112 18.133107 7.629920 1.820836 
-0.228124 0.728844 0.804306 -0.035918 0.026543 89.860998 13.573943 6.219284 -37.944138 -4.617411 12.108347 64.177912 1.976314 13.243240 -36.811894 0.000000 -0.000000 0.000000 -7.225287 -5.201221 -45.218664 -1.496076 -9.207673 76.608715 4.724427 -8.462687 -34.314000 0.000000 -0.000000 0.000000 -0.427252 -0.845294 33.320704 2.545536 -1.547621 -8.062062 -0.709967 -2.051440 -1.676669 3.977272 9.961481 -25.230531 -4.594299 -4.057626 19.004940 -19.857467 -21.459440 -7.744621 -20.895057 -25.742114 -0.951364 52.199129 -67.594425 -31.760691 -0.606650 -11.419313 2.317727 20.903204 24.791254 -8.274212 17.896525 34.548361 0.250369 -48.871126 62.428272 -27.329427 18.161873 7.629168 1.853759 
-0.228543 0.728865 0.803828 0.024362 0.008157 89.800334 13.578329 6.215647 -37.948510 -4.595043 12.099101 64.282468 1.978539 13.224092 -36.846136 0.000000 -0.000000 0.000000 -7.230874 -5.192458 -45.206019 -1.535616 -9.224202 76.724110 4.713630 -8.504585 -34.368526 0.000000 -0.000000 0.000000 -0.454883 -0.852215 33.364986 2.570081 -1.562137 -8.048583 -0.708654 -2.058384 -1.656298 3.991348 9.955838 -25.258057 -4.604845 -4.113912 19.048944 -19.886791 -21.432628 -7.749230 -20.943445 -25.767943 -0.914629 52.315705 -67.689931 -31.810547 -0.615386 -11.437642 2.347987 20.973946 24.750761 -8.287272 17.969565 34.525829 0.290278 -49.000531 62.441210 -27.419449 18.246114 7.621437 1.844113 
-0.229037 0.728785 0.803306 0.131453 -0.014926 89.773987 13.601352 6.241415 -38.001396 -4.602446 12.124127 64.395872 1.991375 13.152266 -36.858325 0.000000 -0.000000 0.000000 -7.262230 -5.254010 -45.219268 -1.561865 -9.291263 76.863798 4.690647 -8.526896 -34.423914 0.000000 -0.000000 0.000000 -0.461404 -0.873057 33.358651 2.597892 -1.593102 -8.024827 -0.717449 -2.079335 -1.638936 4.012001 9.920128 -25.290328 -4.600696 -4.201489 19.047324 -19.889032 -21.400437 -7.738266 -21.039166 -25.796111 -0.866783 52.632294 -67.785175 -32.021885 -0.637227 -11.456614 2.370717 21.023696 24.687320 -8.290726 18.063298 34.494238 0.314236 -49.164889 62.464211 -27.570663 18.367951 7.591921 1.772038 
-0.229439 0.728473 0.802870 0.165104 -0.053808 89.769222 13.634068 6.361853 -38.006091 -4.640501 12.199643 64.473968 2.016166 13.044370 -36.890929 0.000000 -0.000000 0.000000 -7.308960 -5.350892 -45.251436 -1.575089 -9.338585 77.015149 4.682335 -8.439991 -34.469053 0.000000 -0.000000 0.000000 -0.478639 -0.868466 33.344574 2.599326 -1.592495 -8.015078 -0.730964 -2.079041 -1.670376 4.040873 9.850849 -25.313270 -4.575810 -4.288397 19.039538 -19.929857 -21.359974 -7.723849 -21.103444 -25.819069 -0.831671 53.005708 -67.902567 -32.315675 -0.651691 -11.437111 2.339729 21.078366 24.622444 -8.275061 18.098192 34.422472 0.304254 -49.321292 62.521764 -27.666904 18.450708 7.594892 1.838611 
-0.229800 0.728159 0.802321 0.188523 -0.081582 89.796451 13.658084 6.486845 -38.055880 -4.654633 12.251122 64.568469 2.048818 12.953216 -36.942378 0.000000 -0.000000 0.000000 -7.342599 -5.465374 -45.322106 -1.586592 -9.390961 77.160828 4.685883 -8.338860 -34.525085 0.000000 -0.000000 0.000000 -0.479796 -0.851458 33.391170 2.594886 -1.583142 -8.106685 -0.735549 -2.085816 -1.689605 4.070199 9.808922 -25.399536 -4.571336 -4.377341 19.013123 -19.940346 -21.285675 -7.755962 -21.179189 -25.903539 -0.834588 53.412670 -68.045273 -32.628692 -0.656328 -11.432203 2.311947 21.072778 24.524333 -8.317313 18.136014 34.382504 0.308079 -49.486442 62.603611 -27.781036 18.367703 7.599324 1.886356 
-0.230156 0.727960 0.801645 0.218976 -0.067703 89.868807 13.709310 6.555946 -38.202431 -4.644860 12.278978 64.712321 2.060722 12.914552 -36.987181 0.000000 -0.000000 0.000000 -7.335102 -5.557944 -45.458494 -1.603662 -9.461436 77.315377 4.676232 -8.271378 -34.580210 0.000000 -0.000000 0.000000 -0.466980 -0.849022 33.428286 2.608221 -1.572571 -8.197315 -0.723216 -2.085619 -1.707814 4.089865 9.804438 -25.530424 -4.548417 -4.416476 18.914994 -19.930723 -21.252621 -7.792019 -21.212188 -25.964463 -0.862207 54.029325 -68.166863 -33.135629 -0.586649 -11.443962 2.328640 21.054063 24.467435 -8.348580 18.089883 34.361460 0.234959 -49.726131 62.654318 -27.999918 18.257037 7.617109 1.854928 
-0.230647 0.727847 0.800563 0.232267 -0.014018 90.049582 13.824048 6.627983 -38.516859 -4.616321 12.327537 64.940845 2.068547 12.877157 -37.032953 0.000000 -0.000000 0.000000 -7.294723 -5.627319 -45.764602 -1.629068 -9.572650 77.546859 4.655032 -8.180113 -34.635982 0.000000 -0.000000 0.000000 -0.464631 -0.859146 33.459372 2.637739 -1.534235 -8.344036 -0.696222 -2.082259 -1.750285 4.112883 9.828691 -25.758981 -4.501408 -4.434427 18.754806 -19.897217 -21.209647 -7.853962 -21.224415 -26.035871 -0.905457 54.911892 -68.305881 -33.889558 -0.462901 -11.444110 2.350381 21.020846 24.406848 -8.387878 18.083557 34.371883 0.150639 -50.211613 62.666776 -28.464610 18.125871 7.646009 1.807927 
-0.230997 0.727567 0.799625 0.163517 0.000124 90.151897 13.891002 6.746429 -38.684531 -4.572717 12.371933 65.141626 2.076496 12.817047 -37.114663 0.000000 -0.000000 0.000000 -7.280102 -5.671611 -45.984653 -1.664592 -9.622889 77.768110 4.638369 -8.034038 -34.695798 0.000000 -0.000000 0.000000 -0.524707 -0.835979 33.563989 2.653630 -1.512222 -8.463760 -0.666440 -2.062571 -1.833945 4.139814 9.853633 -25.890756 -4.441156 -4.458088 18.586865 -19.911274 -21.201045 -7.885828 -21.155214 -26.031729 -0.957698 55.602376 -68.395394 -34.561079 -0.355304 -11.439760 2.300146 21.058217 24.404650 -8.376997 18.088839 34.383553 0.091572 -50.595791 62.673098 -28.818394 18.044588 7.647545 1.787053 
-0.231392 0.727458 0.798456 0.192197 0.040203 90.310830 13.983385 6.792176 -38.993886 -4.565015 12.403368 65.384582 2.086973 12.796215 -37.177616 0.000000 -0.000000 0.000000 -7.275459 -5.761560 -46.272333 -1.652006 -9.726889 78.011010 4.619037 -7.937482 -34.748634 0.000000 -0.000000 0.000000 -0.555417 -0.872192 33.594789 2.705872 -1.519070 -8.599649 -0.656377 -2.062826 -1.852889 4.167509 9.886284 -26.062723 -4.448207 -4.526326 18.558138 -19.871984 -21.172650 -7.937560 -21.106891 -26.086807 -1.017586 56.015939 -68.403781 -34.935817 -0.310106 -11.436410 2.277946 21.063639 24.388417 -8.414307 18.154226 34.472025 0.087404 -50.837590 62.631005 -28.997882 18.040720 7.645361 1.760462 
-0.231739 0.726897 0.797386 0.144098 0.034434 90.368472 14.043563 6.946769 -39.103112 -4.565885 12.445651 65.603951 2.099933 12.703598 -37.301369 0.000000 -0.000000 0.000000 -7.297266 -5.848517 -46.429256 -1.660992 -9.774316 78.269096 4.607119 -7.766493 -34.837918 0.000000 -0.000000 0.000000 -0.615907 -0.853285 33.680690 2.735268 -1.517348 -8.697732 -0.654868 -2.058321 -1.915780 4.177769 9.927539 -26.168597 -4.474099 -4.600005 18.631708 -19.936183 -21.175503 -7.965995 -21.005979 -26.107562 -1.065690 56.123964 -68.413984 -34.992141 -0.251781 -11.426486 2.377164 21.185447 24.393935 -8.429436 18.173275 34.517737 0.099880 -50.907945 62.669372 -29.010772 18.018751 7.629316 1.719662 
-0.232102 0.726577 0.796126 0.237989 0.080332 90.479959 14.155303 7.034538 -39.372931 -4.637803 12.452099 65.861972 2.109770 12.631676 -37.344019 0.000000 -0.000000 0.000000 -7.319442 -5.965708 -46.628538 -1.613341 -9.891517 78.495711 4.615567 -7.690847 -34.870041 0.000000 -0.000000 0.000000 -0.567480 -0.939016 33.672362 2.763459 -1.522739 -8.809420 -0.689741 -2.061849 -1.908350 4.172753 9.945663 -26.216484 -4.500417 -4.650827 18.782751 -19.894471 -21.173433 -8.004455 -20.974657 -26.173598 -1.121874 56.114075 -68.352904 -34.979805 -0.337795 -11.415250 2.260412 21.163553 24.360732 -8.441563 18.223069 34.570706 0.101909 -50.992940 62.643035 -29.080083 18.061513 7.650039 1.659817 
-0.232236 0.725875 0.795159 0.217444 0.036226 90.455120 14.174212 7.162611 -39.375058 -4.671111 12.502689 66.069565 2.126540 12.548706 -37.472339 0.000000 -0.000000 0.000000 -7.399318 -6.039982 -46.684810 -1.581938 -9.898020 78.740978 4.624292 -7.554159 -34.932531 0.000000 -0.000000 0.000000 -0.566512 -0.959361 33.731774 2.734907 -1.504942 -8.856010 -0.740834 -2.049688 -1.947952 4.180331 9.968094 -26.140971 -4.529965 -4.668513 18.936827 -19.980553 -21.174158 -8.052580 -20.881178 -26.187284 -1.127970 55.931925 -68.386546 -34.894284 -0.390154 -11.397752 2.259387 21.265015 24.341373 -8.428150 18.231384 34.552455 0.144629 -51.036095 62.701000 -29.153183 18.145602 7.623370 1.668649 
-0.232450 0.725008 0.794244 0.276865 0.007640 90.404290 14.165824 7.228211 -39.378383 -4.693338 12.448675 66.241209 2.132273 12.485725 -37.541262 0.000000 -0.000000 0.000000 -7.430079 -6.118139 -46.661297 -1.586981 -9.868149 78.930311 4.631242 -7.472325 -35.003928 0.000000 -0.000000 0.000000 -0.548276 -0.988632 33.813226 2.734477 -1.504262 -8.925137 -0.771828 -2.029464 -1.962299 4.153028 9.942394 -26.071977 -4.535200 -4.665886 19.086230 -20.028613 -21.194548 -8.078366 -20.853706 -26.205208 -1.119490 55.821364 -68.435560 -34.822752 -0.379125 -11.364596 2.249295 21.265628 24.327214 -8.429893 18.226476 34.486625 0.162718 -51.109544 62.774271 -29.225972 18.176742 7.589178 1.671266 
-0.232892 0.724824 0.793497 0.394328 0.047213 90.492940 14.244231 7.175988 -39.596762 -4.752061 12.414644 66.420927 2.109445 12.512040 -37.561905 0.000000 -0.000000 0.000000 -7.397517 -6.075896 -46.827481 -1.592171 -9.920684 79.099245 4.640959 -7.569591 -35.042490 0.000000 -0.000000 0.000000 -0.491770 -1.040990 33.796344 2.759733 -1.467771 -9.032374 -0.793253 -2.034058 -1.928168 4.154491 9.928994 -26.079940 -4.565151 -4.681103 19.204710 -20.069023 -21.170174 -8.118776 -20.856636 -26.268238 -1.078673 55.848613 -68.477572 -34.859460 -0.399016 -11.384634 2.256836 21.261255 24.251963 -8.493084 18.231427 34.458907 0.212063 -51.231171 62.854957 -29.319347 18.217580 7.603023 1.681267 
